<?xml version="1.0" encoding="UTF-8" standalone="no"?>
<!DOCTYPE svg PUBLIC "-//W3C//DTD SVG 1.1//EN" "http://www.w3.org/Graphics/SVG/1.1/DTD/svg11.dtd">
<svg width="100%" height="100%" viewBox="0 0 2560 1340" version="1.1" xmlns="http://www.w3.org/2000/svg" xmlns:xlink="http://www.w3.org/1999/xlink" xml:space="preserve" xmlns:serif="http://www.serif.com/" style="fill-rule:evenodd;clip-rule:evenodd;stroke-linejoin:round;stroke-miterlimit:2;">
    <g id="title-flatten" transform="matrix(45.5513,0,0,45.5513,-32441.8,-38218.9)">
        <g transform="matrix(12.0304,0,0,12.0304,719.065,864.189)">
            <path d="M0.529,-0.729L0.529,-0.599L0.23,-0.599L0.23,-0.414L0.479,-0.414L0.479,-0.284L0.23,-0.284L0.23,-0L0.06,-0L0.06,-0.729L0.529,-0.729Z" style="fill:white;fill-rule:nonzero;"/>
        </g>
        <g transform="matrix(12.0304,0,0,12.0304,725.766,864.189)">
            <path d="M0.22,-0.519L0.22,0.001C0.22,0.025 0.217,0.048 0.211,0.07C0.205,0.091 0.194,0.11 0.18,0.126C0.166,0.142 0.147,0.155 0.124,0.165C0.101,0.174 0.072,0.179 0.038,0.179C0.025,0.179 0.014,0.178 0.003,0.176C-0.008,0.175 -0.019,0.173 -0.031,0.17L-0.026,0.088C-0.025,0.081 -0.023,0.076 -0.019,0.073C-0.015,0.069 -0.007,0.068 0.005,0.068C0.017,0.068 0.027,0.067 0.035,0.065C0.042,0.063 0.048,0.059 0.053,0.054C0.057,0.049 0.06,0.042 0.062,0.034C0.064,0.025 0.065,0.014 0.065,0.001L0.065,-0.519L0.22,-0.519ZM0.238,-0.661C0.238,-0.648 0.236,-0.637 0.231,-0.626C0.226,-0.615 0.219,-0.605 0.21,-0.597C0.201,-0.589 0.191,-0.583 0.18,-0.578C0.168,-0.573 0.156,-0.571 0.143,-0.571C0.13,-0.571 0.118,-0.573 0.108,-0.578C0.096,-0.583 0.087,-0.589 0.078,-0.597C0.07,-0.605 0.063,-0.615 0.058,-0.626C0.053,-0.637 0.051,-0.648 0.051,-0.661C0.051,-0.673 0.053,-0.685 0.058,-0.696C0.063,-0.707 0.07,-0.717 0.078,-0.725C0.087,-0.733 0.096,-0.74 0.108,-0.745C0.118,-0.749 0.13,-0.752 0.143,-0.752C0.156,-0.752 0.168,-0.749 0.18,-0.745C0.191,-0.74 0.201,-0.733 0.21,-0.725C0.219,-0.717 0.226,-0.707 0.231,-0.696C0.236,-0.685 0.238,-0.673 0.238,-0.661Z" style="fill:white;fill-rule:nonzero;"/>
        </g>
        <g transform="matrix(12.0304,0,0,12.0304,729.17,864.189)">
            <path d="M0.418,-0C0.403,-0 0.392,-0.002 0.385,-0.006C0.377,-0.01 0.371,-0.018 0.366,-0.031L0.355,-0.06C0.342,-0.049 0.33,-0.039 0.318,-0.031C0.306,-0.022 0.293,-0.015 0.28,-0.009C0.267,-0.003 0.254,0.001 0.239,0.004C0.225,0.007 0.209,0.008 0.191,0.008C0.167,0.008 0.146,0.005 0.127,-0.001C0.107,-0.007 0.091,-0.017 0.077,-0.029C0.064,-0.041 0.053,-0.055 0.046,-0.073C0.039,-0.091 0.035,-0.112 0.035,-0.135C0.035,-0.153 0.04,-0.172 0.049,-0.192C0.058,-0.211 0.075,-0.228 0.098,-0.244C0.121,-0.26 0.152,-0.273 0.191,-0.284C0.23,-0.295 0.279,-0.301 0.338,-0.302L0.338,-0.324C0.338,-0.354 0.332,-0.376 0.319,-0.39C0.307,-0.403 0.289,-0.41 0.266,-0.41C0.248,-0.41 0.233,-0.408 0.221,-0.404C0.209,-0.4 0.199,-0.396 0.19,-0.391C0.181,-0.386 0.172,-0.381 0.163,-0.377C0.154,-0.373 0.144,-0.371 0.132,-0.371C0.121,-0.371 0.112,-0.374 0.105,-0.379C0.097,-0.384 0.091,-0.39 0.087,-0.398L0.059,-0.447C0.09,-0.474 0.125,-0.495 0.163,-0.508C0.201,-0.522 0.242,-0.529 0.286,-0.529C0.317,-0.529 0.346,-0.523 0.371,-0.513C0.396,-0.503 0.417,-0.489 0.435,-0.471C0.452,-0.453 0.466,-0.431 0.475,-0.406C0.484,-0.381 0.489,-0.354 0.489,-0.324L0.489,-0L0.418,-0ZM0.24,-0.095C0.26,-0.094 0.278,-0.098 0.293,-0.105C0.308,-0.112 0.323,-0.123 0.338,-0.139L0.338,-0.211C0.307,-0.21 0.282,-0.207 0.262,-0.203C0.242,-0.199 0.226,-0.194 0.214,-0.188C0.202,-0.182 0.194,-0.175 0.19,-0.168C0.185,-0.16 0.183,-0.152 0.183,-0.143C0.183,-0.125 0.188,-0.112 0.198,-0.105C0.207,-0.098 0.221,-0.094 0.24,-0.095ZM0.265,-0.648C0.265,-0.637 0.263,-0.627 0.259,-0.618C0.254,-0.608 0.248,-0.6 0.241,-0.593C0.233,-0.586 0.225,-0.581 0.215,-0.577C0.205,-0.573 0.194,-0.571 0.183,-0.571C0.172,-0.571 0.162,-0.573 0.153,-0.577C0.143,-0.581 0.135,-0.586 0.128,-0.593C0.121,-0.6 0.115,-0.608 0.111,-0.618C0.106,-0.627 0.104,-0.637 0.104,-0.648C0.104,-0.659 0.106,-0.669 0.111,-0.679C0.115,-0.688 0.121,-0.697 0.128,-0.704C0.135,-0.711 0.143,-0.717 0.153,-0.721C0.162,-0.725 0.172,-0.727 0.183,-0.727C0.194,-0.727 0.205,-0.725 0.215,-0.721C0.225,-0.717 0.233,-0.711 0.241,-0.704C0.248,-0.697 0.254,-0.688 0.259,-0.679C0.263,-0.669 0.265,-0.659 0.265,-0.648ZM0.458,-0.648C0.458,-0.637 0.456,-0.627 0.452,-0.618C0.448,-0.608 0.442,-0.6 0.435,-0.593C0.427,-0.586 0.419,-0.581 0.409,-0.577C0.399,-0.573 0.388,-0.571 0.377,-0.571C0.366,-0.571 0.356,-0.573 0.346,-0.577C0.336,-0.581 0.328,-0.586 0.321,-0.593C0.313,-0.6 0.307,-0.608 0.303,-0.618C0.299,-0.627 0.297,-0.637 0.297,-0.648C0.297,-0.659 0.299,-0.669 0.303,-0.679C0.307,-0.688 0.313,-0.697 0.321,-0.704C0.328,-0.711 0.336,-0.717 0.346,-0.721C0.356,-0.725 0.366,-0.727 0.377,-0.727C0.388,-0.727 0.399,-0.725 0.409,-0.721C0.419,-0.717 0.427,-0.711 0.435,-0.704C0.442,-0.697 0.448,-0.688 0.452,-0.679C0.456,-0.669 0.458,-0.659 0.458,-0.648Z" style="fill:white;fill-rule:nonzero;"/>
        </g>
        <g transform="matrix(12.0304,0,0,12.0304,735.655,864.189)">
            <rect x="0.065" y="-0.749" width="0.155" height="0.749" style="fill:white;fill-rule:nonzero;"/>
        </g>
        <g transform="matrix(12.0304,0,0,12.0304,739.084,864.189)">
            <rect x="0.065" y="-0.749" width="0.155" height="0.749" style="fill:white;fill-rule:nonzero;"/>
        </g>
        <g transform="matrix(12.0304,0,0,12.0304,742.512,864.189)">
            <path d="M0.529,-0.729L0.529,-0.599L0.23,-0.599L0.23,-0.429L0.459,-0.429L0.459,-0.304L0.23,-0.304L0.23,-0.13L0.529,-0.13L0.529,-0L0.06,-0L0.06,-0.729L0.529,-0.729Z" style="fill:rgb(255,143,46);fill-rule:nonzero;"/>
        </g>
        <g transform="matrix(12.0304,0,0,12.0304,749.309,864.189)">
            <rect x="0.065" y="-0.749" width="0.155" height="0.749" style="fill:rgb(255,143,46);fill-rule:nonzero;"/>
        </g>
        <g transform="matrix(12.0304,0,0,12.0304,752.738,864.189)">
            <path d="M0.22,-0.519L0.22,-0L0.065,-0L0.065,-0.519L0.22,-0.519ZM0.238,-0.661C0.238,-0.648 0.236,-0.637 0.231,-0.626C0.226,-0.615 0.219,-0.605 0.21,-0.597C0.201,-0.589 0.191,-0.583 0.18,-0.578C0.168,-0.573 0.156,-0.571 0.143,-0.571C0.13,-0.571 0.118,-0.573 0.108,-0.578C0.096,-0.583 0.087,-0.589 0.078,-0.597C0.07,-0.605 0.063,-0.615 0.058,-0.626C0.053,-0.637 0.051,-0.648 0.051,-0.661C0.051,-0.673 0.053,-0.685 0.058,-0.696C0.063,-0.707 0.07,-0.717 0.078,-0.725C0.087,-0.733 0.096,-0.74 0.108,-0.745C0.118,-0.749 0.13,-0.752 0.143,-0.752C0.156,-0.752 0.168,-0.749 0.18,-0.745C0.191,-0.74 0.201,-0.733 0.21,-0.725C0.219,-0.717 0.226,-0.707 0.231,-0.696C0.236,-0.685 0.238,-0.673 0.238,-0.661Z" style="fill:rgb(255,143,46);fill-rule:nonzero;"/>
        </g>
        <g transform="matrix(12.0304,0,0,12.0304,756.167,864.189)">
            <path d="M0.242,0.008C0.217,0.008 0.196,0.004 0.177,-0.003C0.158,-0.01 0.142,-0.02 0.129,-0.033C0.116,-0.046 0.107,-0.062 0.1,-0.081C0.093,-0.1 0.09,-0.121 0.09,-0.144L0.09,-0.412L0.046,-0.412C0.038,-0.412 0.031,-0.414 0.026,-0.419C0.02,-0.424 0.017,-0.432 0.017,-0.442L0.017,-0.503L0.1,-0.519L0.13,-0.645C0.134,-0.661 0.145,-0.669 0.164,-0.669L0.245,-0.669L0.245,-0.518L0.371,-0.518L0.371,-0.412L0.245,-0.412L0.245,-0.154C0.245,-0.142 0.248,-0.132 0.254,-0.124C0.26,-0.116 0.268,-0.113 0.279,-0.113C0.285,-0.113 0.289,-0.113 0.293,-0.114C0.297,-0.115 0.3,-0.117 0.303,-0.118C0.306,-0.12 0.309,-0.121 0.311,-0.122C0.314,-0.123 0.317,-0.124 0.32,-0.124C0.325,-0.124 0.328,-0.123 0.331,-0.121C0.334,-0.119 0.337,-0.115 0.34,-0.111L0.387,-0.037C0.367,-0.022 0.345,-0.011 0.32,-0.003C0.295,0.004 0.269,0.008 0.242,0.008Z" style="fill:rgb(255,143,46);fill-rule:nonzero;"/>
        </g>
    </g>
    <g id="graphics-flatten" transform="matrix(1,0,0,1,40.6904,0)">
        <g transform="matrix(1,0,0,1,-40.6904,0)">
            <path d="M833.458,385.775L833.427,385.775L833.363,385.777L833.335,385.777L833.323,385.778L833.297,385.778L833.253,385.781L833.218,385.782L833.195,385.784L833.168,385.785L833.137,385.787L833.102,385.789L833.065,385.792L833.04,385.794L833.019,385.796L832.986,385.799L832.934,385.804L832.911,385.806L832.899,385.807L832.87,385.81L832.797,385.819L832.779,385.821C832.568,385.848 832.36,385.885 832.154,385.934L832.074,385.953L832.034,385.963L832.026,385.965L832.014,385.968L831.962,385.982L831.915,385.995L831.902,385.999L831.89,386.002L831.852,386.013L831.797,386.029L831.778,386.035L831.768,386.038L831.741,386.046L831.68,386.066L831.656,386.074L831.647,386.077L831.632,386.082L831.563,386.105L831.534,386.115L831.523,386.119L831.444,386.148L831.413,386.159L831.342,386.187L831.293,386.206L831.224,386.234L831.202,386.243L831.175,386.255L831.111,386.282L831.096,386.289L831.09,386.292L831.057,386.306L831,386.333L830.94,386.361L830.885,386.387C830.341,386.654 829.833,387.005 829.384,387.433L829.344,387.472L829.306,387.51L829.295,387.521L829.285,387.531L829.251,387.565L829.224,387.592L829.213,387.604L829.194,387.624L829.159,387.661L829.142,387.679L829.133,387.689L829.102,387.722L829.068,387.759L829.06,387.768L829.054,387.775L828.997,387.84L828.979,387.861C828.951,387.894 828.923,387.927 828.895,387.96L828.826,388.045L828.814,388.061L828.81,388.066L828.799,388.08L828.754,388.139L828.734,388.165L828.728,388.173L828.717,388.188L828.683,388.234L828.657,388.27L828.647,388.283L828.639,388.296L828.614,388.33L828.582,388.377L828.57,388.394L780.061,459.539L758.189,479.101L678.164,436.542L678.157,436.538L678.068,436.491L678.038,436.476L677.977,436.445L677.941,436.427L677.93,436.422L677.919,436.417L677.886,436.401L677.844,436.381L677.826,436.373L677.815,436.368L677.794,436.359L677.748,436.338L677.722,436.326L677.701,436.317L677.656,436.298L677.617,436.282L677.588,436.27C677.151,436.091 676.698,435.966 676.241,435.895L676.214,435.891L676.156,435.883L676.134,435.879L676.126,435.878L676.104,435.875L676.061,435.87L676.034,435.867L676.019,435.865L675.994,435.862L675.961,435.858L675.934,435.855L675.911,435.853L675.884,435.85L675.858,435.848L675.834,435.846L675.802,435.843L675.773,435.841L675.755,435.84L675.734,435.838L675.691,435.835L675.663,435.834L675.651,435.833L675.634,435.832L675.575,435.829L675.552,435.828L675.534,435.827L675.441,435.825C675.368,435.823 675.295,435.823 675.222,435.824L675.134,435.826L675.11,435.827L675.095,435.828L675.034,435.83L675.009,435.832L675,435.832L674.983,435.833L674.935,435.836L674.903,435.838L674.89,435.839L674.874,435.84L674.835,435.843L674.796,435.847L674.779,435.848L674.766,435.849L674.736,435.852L674.69,435.857L674.67,435.859L674.659,435.86L674.637,435.862L674.582,435.869L674.56,435.872L674.539,435.875L674.471,435.884L674.447,435.887C674.412,435.892 674.377,435.898 674.342,435.904L674.244,435.921L674.233,435.923L674.193,435.93L674.146,435.939L674.124,435.944L674.083,435.952L674.049,435.959L674.037,435.962L674.016,435.967L673.977,435.976L673.952,435.981L673.937,435.985L673.908,435.992L673.874,436L673.856,436.005L673.838,436.009L673.801,436.019L673.771,436.027L673.759,436.03L673.741,436.035L673.694,436.047L673.664,436.056L673.649,436.061C673.465,436.114 673.283,436.176 673.104,436.247L673.064,436.263L673.013,436.284L672.961,436.306L672.921,436.323L672.859,436.35L672.758,436.397L672.733,436.409C672.618,436.464 672.504,436.523 672.392,436.586L672.36,436.603L672.313,436.63L672.291,436.643L672.283,436.648L672.262,436.66L672.228,436.681L672.205,436.694L672.189,436.704L672.166,436.718L672.14,436.735L672.12,436.747L672.096,436.762L672.07,436.779L672.052,436.791L672.035,436.801L672.003,436.823L671.975,436.841L671.963,436.849L671.951,436.857L671.906,436.889L671.881,436.905L671.868,436.915L671.789,436.971C671.758,436.993 671.728,437.016 671.698,437.039L671.624,437.096L671.606,437.109L671.591,437.122L671.544,437.159L671.526,437.174L671.517,437.181L671.501,437.195L671.465,437.224L671.442,437.244L671.428,437.255L624.01,477.626C624.01,477.626 394.026,590.766 394.026,590.766C391.054,592.227 389.829,595.827 391.291,598.798C392.752,601.769 396.352,602.995 399.323,601.533L538.705,532.965L534.61,571.869C534.61,571.869 450.325,654.31 450.325,654.31C448.239,656.35 447.923,659.596 449.578,662C451.232,664.404 454.376,665.27 457.028,664.05L568.011,613.002C569.476,612.329 570.608,611.094 571.152,609.576L589.323,558.871C589.323,558.871 689.389,504.532 689.389,504.532C691.691,503.282 692.916,500.682 692.414,498.111L683.618,453.034L748.659,487.624L698.01,532.923C696.231,534.514 695.564,537.009 696.313,539.276L710.28,581.588C710.28,581.588 588.531,676.821 588.531,676.821C586.071,678.745 585.499,682.235 587.215,684.844C588.931,687.453 592.361,688.31 595.102,686.814L762.234,595.584C763.677,594.796 764.734,593.449 765.157,591.86L785.184,516.589C785.184,516.589 846.131,469.783 846.131,469.783C847.814,468.49 848.689,466.403 848.432,464.296L840.775,401.627L890.889,424.236C892.338,424.89 893.988,424.941 895.476,424.38L916.677,416.373L944.478,435.763L912.385,468.9C911.56,469.751 911.006,470.827 910.793,471.993L901.266,524.022C901.266,524.022 833.84,581.49 833.84,581.49C831.415,583.557 831.028,587.159 832.959,589.693C834.891,592.227 838.466,592.81 841.102,591.02L932.638,528.867C934.017,527.931 934.944,526.463 935.198,524.817L940.683,489.224C940.683,489.224 970.219,467.109 970.219,467.109C971.138,466.422 971.84,465.485 972.242,464.41L994.737,404.308L1046.71,431.567C1049.64,433.105 1053.27,431.972 1054.81,429.04C1056.35,426.107 1055.22,422.477 1052.28,420.939L994.288,390.523L994.279,390.518L994.249,390.502L994.176,390.466L994.132,390.443L994.045,390.402C993.765,390.271 993.478,390.162 993.186,390.077L993.169,390.072L993.077,390.046L993.045,390.038L992.984,390.022C992.427,389.879 991.859,389.82 991.297,389.84L991.258,389.841L991.177,389.845L991.13,389.847L991.058,389.853L991.04,389.854L991.032,389.855L991.002,389.857L990.938,389.863L990.915,389.865L990.904,389.866L990.875,389.869L990.819,389.875L990.79,389.878L990.775,389.88L990.748,389.884L990.699,389.89L990.665,389.895L990.646,389.898L990.621,389.901L990.579,389.908L990.541,389.913L990.518,389.917L990.495,389.921L990.459,389.928L990.417,389.935L990.39,389.94L990.369,389.944L990.339,389.95L990.293,389.959L990.262,389.966L990.244,389.969L990.219,389.975L990.17,389.985L990.135,389.994L990.119,389.997L990.098,390.003L990.048,390.015L990.009,390.025L989.995,390.028L989.978,390.033L989.926,390.046L989.884,390.058L989.872,390.061L989.858,390.066L989.805,390.081L989.76,390.094L989.749,390.097L989.738,390.101L989.684,390.118L989.637,390.133L989.627,390.136L989.617,390.139L989.564,390.157L989.515,390.174L989.445,390.199L989.394,390.218L989.327,390.244L989.276,390.264L989.209,390.291L989.158,390.312L989.148,390.316L989.138,390.321L989.092,390.34L989.043,390.363L989.031,390.368L989.02,390.373L988.977,390.392L988.929,390.415L988.914,390.422L988.901,390.428L988.862,390.447L988.817,390.47L988.799,390.479L988.783,390.486L988.748,390.504L988.706,390.526L988.684,390.538L988.666,390.548L988.635,390.564L988.597,390.585L988.571,390.599L988.55,390.611L988.524,390.626L988.49,390.646L988.459,390.664L988.435,390.678L988.413,390.691L988.385,390.708L988.348,390.73L988.321,390.748L988.304,390.758L988.281,390.773L988.239,390.8L988.208,390.82L988.196,390.828L988.178,390.84L988.131,390.871L988.097,390.894L988.089,390.9L988.077,390.909L988.024,390.945L987.988,390.972L987.919,391.022L987.877,391.054C987.637,391.236 987.408,391.438 987.194,391.659L987.191,391.662L952.935,427.031L920.948,404.722C919.324,403.589 917.247,403.331 915.396,404.03L893.56,412.276L836.028,386.321C835.897,386.261 835.764,386.205 835.628,386.154L835.618,386.151L835.602,386.145L835.551,386.126L835.515,386.114L835.492,386.105L835.466,386.097L835.439,386.087L835.407,386.077L835.364,386.063L835.335,386.054L835.327,386.051L835.309,386.045C834.7,385.855 834.075,385.767 833.458,385.775Z" style="fill:white;"/>
        </g>
        <g transform="matrix(1,0,0,1,-40.6904,0)">
            <path d="M1526.76,397.287L1415.35,464.422C1414.21,465.11 1413.33,466.159 1412.85,467.403L1399.82,501.227C1399.82,501.227 1300.64,581.517 1300.64,581.517C1298.22,583.484 1297.7,586.986 1299.47,589.566C1301.23,592.147 1304.68,592.941 1307.39,591.391L1441.96,514.576C1441.96,514.576 1406.36,578.242 1406.36,578.242C1406.36,578.242 1288.89,682.66 1288.89,682.66C1286.55,684.744 1286.2,688.282 1288.1,690.778C1290,693.274 1293.51,693.886 1296.14,692.181L1425.95,608.165C1426.61,607.738 1427.18,607.185 1427.62,606.538L1471.13,543.556C1471.13,543.556 1501.85,541.582 1501.85,541.582C1503.47,541.477 1504.99,540.718 1506.04,539.478L1582.31,449.649C1583.06,448.77 1583.54,447.694 1583.69,446.55L1591.97,383.744L1616.23,419.46C1616.91,420.457 1617.87,421.228 1619,421.67L1650.49,434.088L1681.51,479.044L1660.7,489.926C1658.98,490.825 1657.8,492.501 1657.54,494.424L1649.25,554.679C1649.25,554.679 1533.62,652.854 1533.62,652.854C1531.3,654.818 1530.82,658.2 1532.49,660.733C1534.16,663.265 1537.46,664.151 1540.18,662.796L1688.67,588.711C1690.27,587.914 1691.43,586.447 1691.83,584.709L1701.17,544.831C1701.17,544.831 1778.14,499.661 1778.14,499.661C1779.58,498.821 1780.6,497.424 1780.96,495.804L1793.63,439.482L1881.5,504.585C1881.5,504.585 1926.82,569.658 1926.82,569.658C1927.71,570.934 1929.06,571.815 1930.59,572.116L1989.08,583.635C1989.08,583.635 2104.13,656.072 2104.13,656.072C2106.93,657.836 2110.64,656.993 2112.4,654.191C2114.17,651.389 2113.32,647.681 2110.52,645.917L1994.53,572.886C1993.9,572.493 1993.21,572.219 1992.49,572.076L1935.28,560.81C1935.28,560.81 1890.78,496.92 1890.78,496.92C1890.41,496.386 1889.95,495.916 1889.43,495.529L1793.38,424.355L1793.37,424.354C1793.31,424.31 1793.25,424.266 1793.19,424.224L1793.1,424.166L1793.09,424.16L1793.07,424.142L1793.01,424.107L1793,424.098L1792.97,424.079L1792.92,424.05L1792.9,424.039L1792.87,424.019L1792.83,423.995L1792.82,423.988L1792.81,423.981L1792.77,423.962L1792.73,423.941L1792.72,423.934L1792.71,423.926L1792.67,423.908L1792.64,423.89L1792.62,423.882L1792.61,423.872L1792.58,423.855L1792.55,423.84L1792.53,423.831L1792.51,423.821L1792.48,423.805L1792.45,423.792L1792.43,423.783L1792.41,423.771L1792.38,423.756L1792.35,423.745L1792.33,423.736L1792.31,423.723L1792.28,423.71L1792.26,423.701L1792.24,423.692L1792.2,423.678L1792.18,423.666L1792.16,423.658L1792.14,423.649L1792.1,423.634L1792.08,423.624L1792.06,423.617L1792.04,423.608L1792,423.593L1791.98,423.583L1791.96,423.578L1791.94,423.569L1791.89,423.553L1791.87,423.545L1791.86,423.541L1791.84,423.532L1791.79,423.515L1791.77,423.508L1791.76,423.505L1791.74,423.497L1791.69,423.479L1791.66,423.472L1791.64,423.464L1791.58,423.446L1791.56,423.44L1791.54,423.434L1791.48,423.414L1791.37,423.384L1791.35,423.38C1791.22,423.345 1791.09,423.314 1790.95,423.287L1790.94,423.285L1790.87,423.272L1790.83,423.265L1790.77,423.255L1790.74,423.25L1790.72,423.247L1790.67,423.24L1790.63,423.234L1790.61,423.231L1790.57,423.226L1790.53,423.221L1790.52,423.219L1790.51,423.218L1790.46,423.213L1790.43,423.209L1790.41,423.207L1790.4,423.206L1790.36,423.202L1790.32,423.199L1790.3,423.197L1790.29,423.196L1790.25,423.193L1790.22,423.191L1790.2,423.189L1790.18,423.188L1790.15,423.186L1790.11,423.184L1790.09,423.183L1790.07,423.182L1790.04,423.181L1790.01,423.18L1789.98,423.179L1789.96,423.178L1789.93,423.178L1789.9,423.177L1789.87,423.177L1789.85,423.177L1789.83,423.177L1789.8,423.176L1789.76,423.177L1789.74,423.177L1789.72,423.177L1789.69,423.177L1789.65,423.178L1789.63,423.179L1789.61,423.18L1789.59,423.18L1789.55,423.182L1789.52,423.183L1789.5,423.184L1789.48,423.185L1789.44,423.188L1789.41,423.189L1789.39,423.19L1789.38,423.192L1789.33,423.195L1789.3,423.197L1789.29,423.199L1789.27,423.2L1789.22,423.205L1789.19,423.208L1789.18,423.209L1789.16,423.21L1789.11,423.216L1789.08,423.22L1789.06,423.222L1789,423.23L1788.97,423.234L1788.95,423.236L1788.9,423.245L1788.86,423.25L1788.85,423.252L1788.79,423.262L1788.75,423.269L1788.75,423.27L1788.69,423.281L1788.64,423.289L1788.54,423.311C1788.5,423.319 1788.47,423.327 1788.43,423.336L1788.33,423.36L1788.32,423.362L1788.25,423.381L1788.21,423.39L1788.14,423.41L1788.11,423.421L1788.04,423.441L1788,423.453L1787.94,423.474L1787.89,423.488L1787.84,423.508L1787.82,423.514L1787.79,423.524L1787.73,423.545L1787.72,423.551L1787.71,423.553L1787.68,423.562L1787.63,423.583L1787.62,423.589L1787.61,423.592L1787.58,423.603L1787.53,423.623L1787.52,423.63L1787.51,423.633L1787.48,423.646L1787.43,423.665L1787.41,423.672L1787.4,423.676L1787.37,423.69L1787.33,423.709L1787.32,423.716L1787.3,423.721L1787.27,423.737L1787.23,423.755L1787.22,423.762L1787.2,423.769L1787.17,423.785L1787.13,423.802L1787.12,423.81L1787.1,423.819L1787.07,423.836L1787.04,423.851L1787.02,423.86L1692.22,473.44L1659.33,425.769C1658.66,424.788 1657.7,424.031 1656.6,423.594L1625.12,411.185C1625.12,411.185 1593.05,363.97 1593.05,363.97L1593.04,363.964C1592.99,363.879 1592.92,363.796 1592.86,363.714L1592.86,363.708C1592.8,363.625 1592.73,363.544 1592.66,363.464L1592.66,363.462C1592.59,363.382 1592.52,363.304 1592.45,363.227L1592.45,363.227C1592.38,363.151 1592.31,363.077 1592.23,363.005L1592.23,363.002C1592.19,362.966 1592.15,362.931 1592.11,362.896L1592.05,362.84L1592,362.798L1591.99,362.788C1591.95,362.756 1591.92,362.724 1591.88,362.693L1591.81,362.635L1591.76,362.603L1591.75,362.593L1591.74,362.587C1591.71,362.558 1591.67,362.529 1591.63,362.501L1591.55,362.443L1591.52,362.419L1591.5,362.408L1591.49,362.399C1591.45,362.373 1591.41,362.347 1591.37,362.322L1591.28,362.263L1591.25,362.246L1591.24,362.237L1591.22,362.227L1591.19,362.207L1591.11,362.159L1591.1,362.155C1591.06,362.131 1591.02,362.108 1590.98,362.084L1590.97,362.079L1590.95,362.073L1590.91,362.048L1590.83,362.005C1590.78,361.982 1590.74,361.96 1590.69,361.938L1590.68,361.933C1590.59,361.888 1590.5,361.847 1590.4,361.808L1590.4,361.806C1590.3,361.766 1590.21,361.728 1590.11,361.693L1590.11,361.693C1590.01,361.658 1589.91,361.625 1589.81,361.595L1589.74,361.573L1589.66,361.551C1589.61,361.538 1589.56,361.525 1589.51,361.512L1589.43,361.495L1589.35,361.476C1589.3,361.465 1589.25,361.455 1589.2,361.446L1589.13,361.432L1589.04,361.417C1588.99,361.409 1588.94,361.402 1588.89,361.396L1588.88,361.394L1588.86,361.392L1588.82,361.386L1588.72,361.375C1588.67,361.37 1588.62,361.365 1588.58,361.362L1588.56,361.36L1588.54,361.359C1588.5,361.355 1588.45,361.352 1588.4,361.35L1588.3,361.345L1588.26,361.344L1588.24,361.343L1588.23,361.343C1588.18,361.342 1588.13,361.341 1588.09,361.341L1587.99,361.342L1587.95,361.343L1587.93,361.343L1587.91,361.344C1587.87,361.345 1587.82,361.347 1587.78,361.349L1587.77,361.349L1587.75,361.35L1587.68,361.355L1587.63,361.358L1587.61,361.36L1587.6,361.361C1587.55,361.364 1587.51,361.369 1587.46,361.374L1587.37,361.384L1587.31,361.391L1587.3,361.392L1587.29,361.394C1587.24,361.4 1587.19,361.407 1587.14,361.415L1587.06,361.429L1587,361.44L1586.99,361.443C1586.88,361.461 1586.79,361.482 1586.68,361.506L1586.68,361.507C1586.48,361.555 1586.28,361.614 1586.08,361.684L1586.08,361.685C1585.99,361.719 1585.89,361.755 1585.8,361.794L1585.79,361.799C1585.69,361.837 1585.6,361.877 1585.52,361.919L1585.5,361.924L1585.49,361.93C1585.41,361.97 1585.32,362.013 1585.24,362.059L1585.22,362.067L1585.21,362.077L1585.17,362.094L1585.1,362.136L1585.08,362.146C1585.05,362.164 1585.02,362.183 1584.99,362.202L1537.22,390.985L1473.98,320.035C1473.26,319.232 1472.34,318.636 1471.32,318.31L1390.26,292.501C1390.26,292.501 1345.08,229.383 1345.08,229.383C1343.15,226.69 1339.4,226.069 1336.7,227.996C1334.01,229.924 1333.39,233.675 1335.32,236.368L1381.66,301.106C1382.41,302.158 1383.49,302.938 1384.72,303.331L1466.11,329.246L1526.76,397.287Z" style="fill:white;"/>
        </g>
        <g transform="matrix(1,0,0,1,-40.6904,0)">
            <path d="M1250.73,170.662C1248.15,169.081 1244.8,169.665 1242.91,172.023L1006.48,466.915C1004.81,469.005 1004.72,471.953 1006.27,474.139C1007.82,476.324 1010.63,477.217 1013.16,476.327L1178.16,418.202C1178.16,418.202 999.635,674.338 999.635,674.338C997.87,676.871 998.315,680.331 1000.66,682.334C1003.01,684.338 1006.5,684.231 1008.72,682.088L1370.72,332.975C1372.63,331.131 1373.1,328.249 1371.88,325.892C1370.65,323.534 1368.03,322.262 1365.42,322.764L1205.19,353.62C1205.19,353.62 1343.05,236.519 1343.05,236.519C1344.51,235.274 1345.29,233.402 1345.14,231.484C1345,229.567 1343.94,227.837 1342.3,226.831L1250.73,170.662Z" style="fill:rgb(255,143,46);"/>
        </g>
    </g>
</svg>
